<svg fill="none" height="80" viewBox="0 0 80 80" width="80" xmlns="http://www.w3.org/2000/svg"><path clip-rule="evenodd" d="m6.6665 40c0-18.4095 14.9239-33.33332 33.3334-33.33332 8.8405 0 17.319 3.51192 23.5702 9.76312 6.2511 6.2512 9.763 14.7297 9.763 23.5702 0 18.4095-14.9237 33.3334-33.3332 33.3334s-33.3334-14.9239-33.3334-33.3334zm27.2335 14.2668 19.4332-12.1334c.7273-.4658 1.1672-1.2698 1.1672-2.1334 0-.8635-.4399-1.6676-1.1672-2.1332l-19.5-12.1334c-.768-.4843-1.7382-.514-2.5345-.0779-.7962.4363-1.2935 1.2699-1.2987 2.1779v24.3334c-.0108.93.4956 1.7891 1.3145 2.23.8189.441 1.8149.3908 2.5855-.13z" fill="#fff" fill-rule="evenodd"/></svg>